<?xml version="1.0" encoding="utf-8"?>
<!-- Generator: Adobe Illustrator 16.0.0, SVG Export Plug-In . SVG Version: 6.00 Build 0)  -->
<!DOCTYPE svg PUBLIC "-//W3C//DTD SVG 1.1//EN" "http://www.w3.org/Graphics/SVG/1.1/DTD/svg11.dtd">
<svg version="1.1" id="Layer_1" xmlns="http://www.w3.org/2000/svg" xmlns:xlink="http://www.w3.org/1999/xlink" x="0px" y="0px"
	 width="1280px" height="800px" viewBox="0 0 1280 800" enable-background="new 0 0 1280 800" xml:space="preserve">
<g id="Reddit">
	<g id="reddit-reddit">
		<polyline id="reddit-back_1_" fill="#929292" points="240.003,0 1040.003,0 1040.003,800 240.003,800 240.003,0 		"/>
		<g id="reddit-reddit_1_" display="none">
			<path display="inline" fill="#FFFFFF" d="M607.126,315.716c0-15.39-12.524-27.914-27.917-27.914
				c-15.387,0-27.905,12.524-27.905,27.914c0,15.388,12.52,27.909,27.905,27.909C594.602,343.625,607.126,331.104,607.126,315.716z"
				/>
			<path display="inline" fill="#FFFFFF" d="M700.761,287.79c-15.398,0-27.924,12.527-27.924,27.926
				c0,15.396,12.524,27.921,27.924,27.921c15.405,0,27.937-12.523,27.937-27.921C728.696,300.317,716.166,287.79,700.761,287.79z"/>
			<path display="inline" fill="#FFFFFF" d="M694.126,384.036c-10.541,10.532-28.399,15.648-54.132,15.648
				c-25.738,0-43.585-5.116-54.114-15.643c-3.027-3.028-7.935-3.031-10.962-0.004c-3.027,3.031-3.027,7.938,0,10.965
				c13.581,13.584,35.017,20.188,65.076,20.188c30.047,0,51.489-6.604,65.088-20.185c3.033-3.023,3.033-7.936,0.012-10.962
				C702.067,381.019,697.159,381.012,694.126,384.036z"/>
			<path display="inline" fill="#FFFFFF" d="M841.617,285.306c0-25.277-20.563-45.843-45.837-45.843
				c-11.664,0-22.314,4.391-30.408,11.596c-31.097-20.034-71.313-31.753-114.361-33.468l23.627-74.708l64.276,15.125
				c0.122,20.724,17.011,37.545,37.756,37.545c20.838,0,37.793-16.947,37.793-37.775c0-20.832-16.955-37.778-37.793-37.778
				c-15.509,0-28.856,9.403-34.668,22.806l-70.807-16.666c-3.955-0.934-7.947,1.34-9.174,5.207l-27.229,86.081
				c-45.233,0.848-87.684,12.692-120.166,33.625c-8.1-7.203-18.744-11.591-30.408-11.591c-25.273,0-45.844,20.566-45.844,45.843
				c0,16.708,8.991,31.348,22.389,39.358c-0.684,4.294-1.038,8.64-1.038,13.024c0,32.778,19.195,63.357,54.048,86.108
				c11.09,7.238,23.376,13.385,36.542,18.414c-25.702,12.256-43.896,42.077-43.896,76.843c0,39.276,23.218,72.229,54.247,80.684
				c2.424,7.563,5.115,14.758,8.051,21.539c-1.428-0.104-2.868-0.178-4.327-0.178c-27.898,0-50.592,19.057-50.592,42.476
				c0,3.503,0.616,7.123,1.897,11.06c1.032,3.198,4.011,5.365,7.373,5.365h232.716c3.398,0,6.396-2.203,7.403-5.444
				c1.263-4.06,1.85-7.544,1.85-10.979c0-23.419-22.706-42.476-50.617-42.476c-1.044,0-2.081,0.031-3.105,0.085
				c2.924-6.75,5.603-13.922,8.014-21.439c31.03-8.454,54.248-41.413,54.248-80.689c0-34.766-18.194-64.593-43.896-76.85
				c13.159-5.022,25.452-11.175,36.536-18.407c34.857-22.751,54.053-53.33,54.053-86.107c0-4.387-0.354-8.731-1.031-13.025
				C832.627,316.653,841.617,302.015,841.617,285.306z M798.954,157.779c0,12.277-9.998,22.269-22.284,22.269
				c-12.274,0-22.259-9.991-22.259-22.269c0-12.28,9.984-22.274,22.259-22.274C788.956,135.504,798.954,145.499,798.954,157.779z
				 M749.534,663.574c0,0.299-0.014,0.609-0.031,0.922h-65.686c6.977-7.209,13.402-16.103,19.158-26.38
				c3.59-0.958,7.428-1.508,11.443-1.508C733.78,636.608,749.534,648.706,749.534,663.574z M564.39,636.608
				c4.529,0,8.855,0.666,12.83,1.874c5.707,10.126,12.055,18.891,18.951,26.014h-66.84c-0.019-0.313-0.03-0.617-0.03-0.922
				C529.301,648.706,545.041,636.608,564.39,636.608z M659.183,664.496h-38.385c-34.473-19.733-59.308-88.531-59.308-165.046
				c0-18.072,1.386-35.589,3.913-52.095c23.12,6.983,48.431,10.677,74.591,10.677c26.153,0,51.471-3.698,74.603-10.682
				c2.527,16.504,3.913,34.026,3.913,52.1C718.51,575.958,693.662,644.757,659.183,664.496z M547.854,461.768
				c-1.215,12.146-1.873,24.731-1.873,37.684c0,29.064,3.375,56.873,9.453,81.714c-19.658-10.156-33.508-34.161-33.508-62.109
				C521.928,494.86,532.315,473.633,547.854,461.768z M724.558,581.171c6.086-24.848,9.455-52.655,9.455-81.721
				c0-12.951-0.658-25.536-1.874-37.684c15.546,11.859,25.935,33.094,25.935,57.287
				C758.072,547.003,744.218,571.015,724.558,581.171z M639.994,442.529c-90.852,0-164.759-47.03-164.759-104.84
				c0-57.807,73.907-104.834,164.759-104.834c90.851,0,164.771,47.028,164.771,104.834
				C804.765,395.499,730.845,442.529,639.994,442.529z M484.22,254.968c6.428,0,12.392,2.018,17.298,5.441
				c-17.706,14.1-30.12,30.54-36.597,48.261c-6.731-5.566-11.035-13.965-11.035-23.364
				C453.886,268.58,467.49,254.968,484.22,254.968z M778.477,260.416c4.907-3.43,10.87-5.447,17.305-5.447
				c16.724,0,30.334,13.611,30.334,30.337c0,9.399-4.31,17.797-11.041,23.364C808.598,290.951,796.184,274.512,778.477,260.416z"/>
		</g>
	</g>
</g>
<g id="Layer_2">
	<g>
		<path display="none" d="M990.958,750.458c-233.015,0-465.986,0-698.916,0c0-233.014,0-465.986,0-698.916
			c233.014,0,465.985,0,698.916,0C990.958,284.556,990.958,517.528,990.958,750.458z M917.682,699.133
			c1.525-2.334,2.48-3.642,3.277-5.039c17.719-31.065,35.304-62.21,53.163-93.194c13.906-24.13,13.73-48.038-0.038-72.081
			c-9.924-17.33-19.744-34.721-29.59-52.095c-29.048-51.265-58.076-102.541-87.129-153.803
			c-34.468-60.815-69.075-121.553-103.369-182.466c-14.045-24.948-34.935-37.539-63.536-37.506
			c-35.329,0.04-70.659,0.009-105.989,0.009c-1.604,0-3.211,0-5.915,0C691.736,301.926,804.413,500.009,917.682,699.133z
			 M299.344,565.986c1.712,3.23,2.818,5.461,4.049,7.617c17.063,29.897,34.276,59.711,51.177,89.698
			c13.769,24.433,34.088,37.572,62.45,37.571c121.969-0.005,243.939,0.001,365.908-0.013c1.74,0,3.48-0.199,6.175-0.364
			c-4.374-7.538-8.257-14.258-12.167-20.962c-20.95-35.912-42.012-71.763-62.733-107.806c-2.526-4.396-5.117-5.86-10.09-5.854
			c-132.635,0.141-265.269,0.112-397.901,0.112C304.256,565.987,302.301,565.986,299.344,565.986z M650.031,455.768
			c-48.487-85.26-96.457-169.608-145.04-255.038c-49.091,85.686-97.467,170.122-146.118,255.038
			C456.264,455.768,552.532,455.768,650.031,455.768z"/>
		<path fill="#FFFFFF" d="M917.682,699.133C804.413,500.009,691.736,301.926,578.556,102.958c2.704,0,4.311,0,5.915,0
			c35.33,0,70.66,0.031,105.989-0.009c28.604-0.033,49.491,12.558,63.536,37.506c34.294,60.913,68.901,121.65,103.369,182.466
			c29.053,51.262,58.081,102.538,87.129,153.803c9.846,17.374,19.666,34.765,29.59,52.095c13.769,24.043,13.944,47.951,0.038,72.081
			c-17.859,30.984-35.444,62.129-53.163,93.194C920.162,695.491,919.207,696.799,917.682,699.133z"/>
		<path fill="#FFFFFF" d="M299.344,565.986c2.958,0,4.912,0.001,6.866,0.001c132.634,0,265.268,0.027,397.901-0.112
			c4.973-0.006,7.563,1.46,10.09,5.854c20.723,36.045,41.783,71.895,62.733,107.807c3.91,6.704,7.793,13.424,12.167,20.962
			c-2.693,0.165-4.435,0.364-6.175,0.364c-121.969,0.014-243.938,0.008-365.908,0.013c-28.362,0.001-48.681-13.14-62.45-37.571
			c-16.901-29.987-34.114-59.801-51.177-89.697C302.162,571.447,301.056,569.218,299.344,565.986z"/>
		<path fill="#FFFFFF" d="M650.031,455.768c-97.499,0-193.768,0-291.158,0c48.65-84.916,97.026-169.353,146.118-255.038
			C553.574,286.158,601.544,370.508,650.031,455.768z"/>
	</g>
</g>
</svg>
